<?xml version="1.0" encoding="UTF-8"?>
<svg id="Capa_2" data-name="Capa 2" xmlns="http://www.w3.org/2000/svg" viewBox="0 0 881.94 447.7">
  <defs>
    <style>
      .cls-1 {
        fill: #fff;
      }
    </style>
  </defs>
  <g id="Layer_1" data-name="Layer 1">
    <g>
      <g>
        <g>
          <path class="cls-1" d="M19.27,419.55h8.54c1.79,0,3.43.29,4.93.87,1.49.58,2.78,1.38,3.86,2.41,1.08,1.03,1.91,2.23,2.5,3.62.59,1.39.88,2.89.88,4.5v.07c0,1.61-.29,3.12-.88,4.52-.59,1.4-1.42,2.61-2.5,3.63-1.08,1.03-2.37,1.83-3.86,2.42-1.5.59-3.14.88-4.93.88h-8.54v-22.91ZM27.78,438.83c1.2,0,2.29-.19,3.27-.58.98-.38,1.82-.92,2.5-1.61s1.22-1.51,1.6-2.47c.38-.95.57-1.99.57-3.11v-.07c0-1.12-.19-2.16-.57-3.12-.38-.96-.92-1.79-1.6-2.48-.69-.69-1.52-1.23-2.5-1.63-.98-.39-2.07-.59-3.27-.59h-4.52v15.65h4.52Z"/>
          <path class="cls-1" d="M68.69,442.85c-1.24,0-2.41-.22-3.49-.65-1.08-.44-2.02-1.05-2.82-1.83-.8-.79-1.42-1.73-1.88-2.83-.46-1.1-.69-2.32-.69-3.65v-.07c0-1.24.21-2.41.62-3.5s1-2.05,1.75-2.86,1.64-1.46,2.67-1.93c1.02-.47,2.16-.7,3.4-.7,1.37,0,2.58.25,3.62.75,1.04.5,1.9,1.18,2.59,2.03s1.21,1.84,1.55,2.96c.35,1.12.52,2.31.52,3.55,0,.18,0,.36-.02.54-.01.19-.03.38-.05.57h-12.7c.22,1.42.78,2.5,1.69,3.26.9.75,2,1.13,3.29,1.13.98,0,1.83-.18,2.55-.52.72-.35,1.43-.86,2.13-1.54l2.32,2.06c-.83.98-1.82,1.77-2.96,2.36-1.15.59-2.51.88-4.11.88ZM72.62,432.61c-.07-.63-.21-1.23-.43-1.78s-.51-1.04-.88-1.44-.81-.73-1.33-.97c-.51-.24-1.1-.36-1.75-.36-1.22,0-2.23.42-3.03,1.26-.8.84-1.28,1.94-1.46,3.29h8.87Z"/>
          <path class="cls-1" d="M102.83,442.79c-1.24,0-2.5-.22-3.78-.66s-2.46-1.09-3.55-1.95l1.77-2.69c.94.7,1.89,1.23,2.86,1.59s1.9.54,2.8.54,1.51-.17,1.98-.51.7-.79.7-1.35v-.07c0-.33-.1-.61-.31-.85-.21-.24-.49-.45-.85-.62-.36-.17-.77-.34-1.24-.49-.47-.15-.95-.3-1.46-.46-.63-.17-1.27-.38-1.91-.62-.64-.24-1.22-.55-1.74-.93-.51-.38-.93-.85-1.26-1.42-.33-.57-.49-1.26-.49-2.09v-.06c0-.81.16-1.54.47-2.19.32-.65.75-1.21,1.31-1.67.56-.46,1.21-.81,1.96-1.04s1.55-.36,2.41-.36c1.09,0,2.19.18,3.31.53,1.11.35,2.13.84,3.04,1.46l-1.57,2.83c-.83-.5-1.67-.9-2.52-1.2-.85-.29-1.64-.44-2.36-.44-.76,0-1.36.16-1.78.49-.43.33-.64.74-.64,1.24v.06c0,.31.11.57.33.8.22.23.51.44.87.62.36.19.77.36,1.24.52.47.16.95.32,1.46.47.63.2,1.27.42,1.9.69.63.26,1.21.58,1.72.96.51.38.93.84,1.26,1.39.33.54.49,1.21.49,1.99v.06c0,.91-.16,1.71-.49,2.38s-.78,1.23-1.36,1.68c-.58.45-1.26.79-2.05,1.01-.79.23-1.63.34-2.52.34Z"/>
          <path class="cls-1" d="M140.21,442.46v-2.13c-.59.7-1.34,1.29-2.26,1.77-.92.48-2.03.72-3.34.72-.83,0-1.62-.12-2.36-.34s-1.39-.57-1.95-1.02c-.56-.45-1-1-1.34-1.67s-.51-1.44-.51-2.31v-.06c0-.96.17-1.8.52-2.5.35-.71.83-1.3,1.46-1.77.62-.47,1.36-.82,2.23-1.05.86-.23,1.8-.34,2.8-.34s1.94.07,2.67.2c.73.13,1.43.31,2.11.52v-.33c0-1.2-.37-2.12-1.1-2.75-.73-.63-1.78-.95-3.16-.95-.98,0-1.85.1-2.62.29-.76.2-1.54.46-2.32.79l-1.08-3.18c.96-.44,1.94-.79,2.95-1.05,1-.26,2.21-.39,3.63-.39,2.57,0,4.48.64,5.73,1.91,1.24,1.28,1.87,3.07,1.87,5.38v10.25h-3.93ZM140.31,435.23c-.5-.2-1.1-.36-1.78-.49s-1.41-.2-2.18-.2c-1.24,0-2.21.24-2.91.72-.7.48-1.05,1.14-1.05,1.96v.07c0,.83.32,1.46.97,1.9.64.44,1.43.65,2.37.65.66,0,1.26-.09,1.82-.26.56-.17,1.04-.42,1.46-.74.41-.32.74-.7.97-1.15.23-.45.34-.94.34-1.49v-.98Z"/>
          <path class="cls-1" d="M165.22,425.18h3.99v3.89c.55-1.31,1.32-2.36,2.32-3.14s2.27-1.14,3.8-1.08v4.19h-.23c-.87,0-1.67.14-2.39.43-.72.28-1.34.71-1.87,1.28s-.93,1.28-1.21,2.14c-.28.86-.43,1.86-.43,2.99v6.58h-3.99v-17.28Z"/>
          <path class="cls-1" d="M195.1,425.18h3.99v3.89c.55-1.31,1.32-2.36,2.32-3.14s2.27-1.14,3.8-1.08v4.19h-.23c-.87,0-1.67.14-2.39.43-.72.28-1.34.71-1.87,1.28s-.93,1.28-1.21,2.14c-.28.86-.43,1.86-.43,2.99v6.58h-3.99v-17.28Z"/>
          <path class="cls-1" d="M233.2,442.85c-1.31,0-2.53-.23-3.65-.7-1.12-.47-2.1-1.11-2.91-1.91-.82-.81-1.46-1.75-1.91-2.85-.46-1.09-.69-2.25-.69-3.47v-.07c0-1.24.23-2.41.7-3.5s1.11-2.05,1.93-2.86c.82-.82,1.79-1.47,2.91-1.95,1.12-.48,2.35-.72,3.68-.72s2.56.24,3.68.7c1.12.47,2.1,1.11,2.91,1.93s1.46,1.77,1.91,2.85c.46,1.08.69,2.24.69,3.49v.06c0,1.22-.23,2.38-.7,3.47-.47,1.09-1.11,2.05-1.93,2.86-.82.82-1.8,1.47-2.93,1.95-1.14.48-2.37.72-3.7.72ZM233.27,439.42c.8,0,1.52-.15,2.16-.44.64-.29,1.19-.69,1.64-1.2.46-.5.8-1.08,1.04-1.75.24-.67.36-1.37.36-2.11v-.07c0-.76-.13-1.48-.39-2.16-.26-.68-.62-1.27-1.09-1.77s-1.02-.9-1.66-1.19c-.64-.29-1.35-.44-2.13-.44s-1.49.15-2.13.44-1.19.69-1.64,1.18c-.46.49-.8,1.07-1.04,1.75s-.36,1.39-.36,2.13v.06c0,.76.13,1.48.39,2.14.26.67.62,1.26,1.09,1.77.47.51,1.02.92,1.66,1.21.64.29,1.34.44,2.1.44Z"/>
          <path class="cls-1" d="M263.09,418.57h3.99v23.89h-3.99v-23.89Z"/>
          <path class="cls-1" d="M288.81,418.57h3.99v23.89h-3.99v-23.89Z"/>
          <path class="cls-1" d="M324.88,442.46v-2.13c-.59.7-1.34,1.29-2.26,1.77-.92.48-2.03.72-3.34.72-.83,0-1.62-.12-2.36-.34s-1.39-.57-1.95-1.02c-.56-.45-1-1-1.34-1.67s-.51-1.44-.51-2.31v-.06c0-.96.17-1.8.52-2.5.35-.71.83-1.3,1.46-1.77.62-.47,1.36-.82,2.23-1.05.86-.23,1.8-.34,2.8-.34s1.94.07,2.67.2c.73.13,1.43.31,2.11.52v-.33c0-1.2-.37-2.12-1.1-2.75-.73-.63-1.78-.95-3.16-.95-.98,0-1.85.1-2.62.29-.76.2-1.54.46-2.32.79l-1.08-3.18c.96-.44,1.94-.79,2.95-1.05,1-.26,2.21-.39,3.63-.39,2.57,0,4.48.64,5.73,1.91,1.24,1.28,1.87,3.07,1.87,5.38v10.25h-3.93ZM324.98,435.23c-.5-.2-1.1-.36-1.78-.49s-1.41-.2-2.18-.2c-1.24,0-2.21.24-2.91.72-.7.48-1.05,1.14-1.05,1.96v.07c0,.83.32,1.46.97,1.9.64.44,1.43.65,2.37.65.66,0,1.26-.09,1.82-.26.56-.17,1.04-.42,1.46-.74.41-.32.74-.7.97-1.15.23-.45.34-.94.34-1.49v-.98Z"/>
          <path class="cls-1" d="M357.03,442.82c-1.03,0-2.02-.2-2.98-.59-.96-.39-1.81-.97-2.55-1.74-.74-.76-1.34-1.7-1.8-2.81-.46-1.11-.69-2.39-.69-3.83v-.06c0-1.44.22-2.72.67-3.83.45-1.11,1.04-2.05,1.78-2.82.74-.76,1.6-1.34,2.56-1.73s1.96-.59,2.99-.59c1.41,0,2.59.31,3.53.92.94.61,1.72,1.32,2.35,2.13v-9.3h3.99v23.89h-3.99l.03-2.88c-.63.9-1.42,1.66-2.37,2.29-.95.63-2.12.95-3.52.95ZM357.96,439.38c.65,0,1.28-.13,1.89-.39.61-.26,1.14-.64,1.6-1.13.46-.49.82-1.07,1.09-1.75.27-.68.41-1.43.41-2.26v-.06c0-.83-.14-1.59-.41-2.28-.27-.69-.64-1.27-1.09-1.75-.46-.48-.99-.85-1.6-1.11-.61-.26-1.24-.39-1.89-.39s-1.31.13-1.91.38c-.6.25-1.13.62-1.58,1.1-.46.48-.82,1.07-1.08,1.75-.26.69-.39,1.46-.39,2.31v.06c0,.83.13,1.59.39,2.28.26.69.62,1.27,1.08,1.75.46.48.98.85,1.58,1.11s1.23.39,1.91.39Z"/>
          <path class="cls-1" d="M396.4,442.85c-1.31,0-2.53-.23-3.65-.7-1.12-.47-2.1-1.11-2.91-1.91-.82-.81-1.46-1.75-1.91-2.85-.46-1.09-.69-2.25-.69-3.47v-.07c0-1.24.23-2.41.7-3.5s1.11-2.05,1.93-2.86,1.79-1.47,2.91-1.95c1.12-.48,2.35-.72,3.68-.72s2.56.24,3.68.7c1.12.47,2.1,1.11,2.91,1.93s1.46,1.77,1.91,2.85c.46,1.08.69,2.24.69,3.49v.06c0,1.22-.23,2.38-.7,3.47-.47,1.09-1.11,2.05-1.93,2.86s-1.8,1.47-2.93,1.95c-1.14.48-2.37.72-3.7.72ZM396.47,439.42c.8,0,1.52-.15,2.16-.44.64-.29,1.19-.69,1.64-1.2.46-.5.8-1.08,1.04-1.75.24-.67.36-1.37.36-2.11v-.07c0-.76-.13-1.48-.39-2.16-.26-.68-.62-1.27-1.09-1.77s-1.02-.9-1.66-1.19c-.64-.29-1.35-.44-2.13-.44s-1.49.15-2.13.44-1.19.69-1.64,1.18c-.46.49-.8,1.07-1.04,1.75s-.36,1.39-.36,2.13v.06c0,.76.13,1.48.39,2.14.26.67.62,1.26,1.09,1.77.47.51,1.02.92,1.66,1.21.64.29,1.34.44,2.1.44Z"/>
          <path class="cls-1" d="M452.24,425.18h3.99v2.88c.63-.92,1.42-1.69,2.35-2.31.94-.62,2.1-.93,3.49-.93,1.02,0,2.01.2,2.97.59s1.81.97,2.56,1.73c.75.76,1.35,1.7,1.81,2.82.46,1.11.69,2.39.69,3.83v.06c0,1.44-.22,2.72-.67,3.83s-1.04,2.05-1.8,2.81c-.75.76-1.61,1.34-2.58,1.74s-1.96.59-2.99.59c-1.42,0-2.59-.31-3.53-.92-.94-.61-1.71-1.32-2.32-2.13v7.92h-3.99v-22.52ZM461.18,439.38c.68,0,1.31-.13,1.91-.39s1.12-.63,1.57-1.1c.45-.47.8-1.05,1.06-1.74s.39-1.46.39-2.31v-.06c0-.83-.13-1.59-.39-2.28s-.62-1.27-1.06-1.75c-.45-.48-.97-.85-1.57-1.11s-1.24-.39-1.91-.39-1.32.13-1.93.39c-.61.26-1.14.64-1.6,1.13-.46.49-.82,1.07-1.1,1.75s-.41,1.43-.41,2.26v.06c0,.83.14,1.59.41,2.28.27.69.64,1.27,1.1,1.75.46.48.99.85,1.6,1.11.61.26,1.26.39,1.93.39Z"/>
          <path class="cls-1" d="M498.75,442.85c-1.31,0-2.53-.23-3.65-.7-1.12-.47-2.1-1.11-2.91-1.91-.82-.81-1.46-1.75-1.91-2.85-.46-1.09-.69-2.25-.69-3.47v-.07c0-1.24.23-2.41.7-3.5.47-1.09,1.11-2.05,1.93-2.86.82-.82,1.79-1.47,2.91-1.95,1.12-.48,2.35-.72,3.68-.72s2.56.24,3.68.7c1.12.47,2.1,1.11,2.91,1.93.82.82,1.46,1.77,1.91,2.85.46,1.08.69,2.24.69,3.49v.06c0,1.22-.23,2.38-.7,3.47-.47,1.09-1.11,2.05-1.93,2.86s-1.8,1.47-2.93,1.95c-1.14.48-2.37.72-3.7.72ZM498.82,439.42c.8,0,1.52-.15,2.16-.44.64-.29,1.19-.69,1.64-1.2.46-.5.8-1.08,1.04-1.75.24-.67.36-1.37.36-2.11v-.07c0-.76-.13-1.48-.39-2.16-.26-.68-.62-1.27-1.09-1.77s-1.02-.9-1.66-1.19-1.35-.44-2.13-.44-1.49.15-2.13.44-1.19.69-1.64,1.18c-.46.49-.8,1.07-1.04,1.75-.24.68-.36,1.39-.36,2.13v.06c0,.76.13,1.48.39,2.14.26.67.62,1.26,1.09,1.77.47.51,1.02.92,1.66,1.21.64.29,1.34.44,2.1.44Z"/>
          <path class="cls-1" d="M528.41,425.18h3.99v3.89c.55-1.31,1.32-2.36,2.32-3.14,1-.79,2.27-1.14,3.8-1.08v4.19h-.23c-.87,0-1.67.14-2.39.43-.72.28-1.34.71-1.87,1.28-.52.57-.93,1.28-1.21,2.14-.28.86-.43,1.86-.43,2.99v6.58h-3.99v-17.28Z"/>
          <path class="cls-1" d="M592.99,442.79c-1.77,0-3.46-.3-5.07-.9-1.61-.6-3.11-1.52-4.48-2.76l2.42-2.88c1.11.96,2.24,1.7,3.37,2.21,1.13.51,2.42.77,3.86.77,1.24,0,2.23-.26,2.96-.79.73-.52,1.1-1.22,1.1-2.1v-.07c0-.41-.07-.78-.21-1.1-.14-.32-.41-.62-.79-.9-.38-.28-.91-.55-1.58-.79s-1.54-.48-2.61-.72c-1.22-.28-2.31-.61-3.26-.97-.95-.36-1.75-.8-2.4-1.31-.65-.51-1.14-1.14-1.48-1.88-.34-.74-.51-1.64-.51-2.69v-.06c0-.98.19-1.88.58-2.7.39-.82.93-1.51,1.61-2.09.68-.58,1.5-1.03,2.46-1.36.96-.33,2.01-.49,3.14-.49,1.68,0,3.19.25,4.53.74,1.34.49,2.6,1.21,3.78,2.14l-2.16,3.04c-1.05-.76-2.08-1.35-3.11-1.75-1.02-.4-2.06-.61-3.11-.61-1.18,0-2.1.26-2.75.79-.65.53-.98,1.17-.98,1.93v.07c0,.44.08.82.23,1.16.15.34.43.65.84.92s.96.53,1.67.77,1.61.49,2.71.75c1.2.3,2.27.64,3.2,1.01.93.37,1.7.82,2.31,1.36.61.53,1.08,1.16,1.4,1.87.32.71.48,1.53.48,2.47v.07c0,1.07-.2,2.03-.6,2.88-.4.85-.96,1.57-1.67,2.16-.71.59-1.57,1.04-2.57,1.34-1,.31-2.1.46-3.3.46Z"/>
          <path class="cls-1" d="M629.71,442.85c-1.24,0-2.41-.22-3.49-.65-1.08-.44-2.02-1.05-2.82-1.83-.8-.79-1.42-1.73-1.88-2.83-.46-1.1-.69-2.32-.69-3.65v-.07c0-1.24.21-2.41.62-3.5s1-2.05,1.75-2.86c.75-.82,1.64-1.46,2.67-1.93,1.02-.47,2.16-.7,3.4-.7,1.37,0,2.58.25,3.62.75,1.04.5,1.9,1.18,2.59,2.03s1.21,1.84,1.55,2.96c.35,1.12.52,2.31.52,3.55,0,.18,0,.36-.01.54-.01.19-.03.38-.05.57h-12.7c.22,1.42.78,2.5,1.69,3.26.9.75,2,1.13,3.29,1.13.98,0,1.83-.18,2.55-.52s1.43-.86,2.13-1.54l2.32,2.06c-.83.98-1.82,1.77-2.96,2.36-1.15.59-2.52.88-4.11.88ZM633.64,432.61c-.06-.63-.21-1.23-.43-1.78-.22-.56-.51-1.04-.88-1.44-.37-.4-.81-.73-1.33-.97-.51-.24-1.1-.36-1.75-.36-1.22,0-2.23.42-3.03,1.26-.8.84-1.28,1.94-1.46,3.29h8.87Z"/>
          <path class="cls-1" d="M657.93,425.18h3.99v3.89c.55-1.31,1.32-2.36,2.32-3.14,1-.79,2.27-1.14,3.8-1.08v4.19h-.23c-.87,0-1.67.14-2.39.43-.72.28-1.34.71-1.87,1.28s-.93,1.28-1.21,2.14c-.28.86-.43,1.86-.43,2.99v6.58h-3.99v-17.28Z"/>
          <path class="cls-1" d="M686.18,425.18h4.25l4.65,12.7,4.68-12.7h4.16l-7.07,17.41h-3.57l-7.1-17.41Z"/>
          <path class="cls-1" d="M723.72,418.76h4.29v3.76h-4.29v-3.76ZM723.88,425.18h3.99v17.28h-3.99v-17.28Z"/>
          <path class="cls-1" d="M749.38,425.18h3.99v3.89c.55-1.31,1.32-2.36,2.32-3.14,1-.79,2.27-1.14,3.8-1.08v4.19h-.23c-.87,0-1.67.14-2.39.43-.72.28-1.34.71-1.87,1.28s-.93,1.28-1.21,2.14c-.28.86-.43,1.86-.43,2.99v6.58h-3.99v-17.28Z"/>
        </g>
        <g>
          <path class="cls-1" d="M810.25,420.59c0,.26.02.46,0,.64-.41,3.37-.84,6.73-1.25,10.1-.2,1.62-.43,3.23-.55,4.85-.09,1.22.77,1.95,1.99,1.87,1.19-.08,2.07-.99,2.22-2.29.69-5.78,1.39-11.56,2.08-17.34.14-1.17-.6-2.1-1.78-2.1-5.87-.02-11.73-.02-17.6-.01-1.17,0-2.17.85-2.37,1.94-.09.49-.12.99-.18,1.48-.47,3.89-.95,7.78-1.41,11.67-.2,1.7-.44,3.4-.56,5.1-.08,1.12.67,1.81,1.79,1.81,1.29,0,2.23-.84,2.41-2.26.37-2.87.69-5.75,1.04-8.63.28-2.27.57-4.54.86-6.85h13.32ZM786.28,441.96c0-.31-.03-.55,0-.79.41-3.34.84-6.68,1.26-10.02.2-1.62.43-3.23.55-4.85.08-1.16-.76-1.91-1.93-1.87-1,.03-1.91.72-2.17,1.74-.16.61-.22,1.25-.29,1.88-.63,5.23-1.24,10.47-1.87,15.7-.2,1.64.42,2.42,2.06,2.42,5.78,0,11.56-.01,17.35-.03,1.18,0,2.13-.83,2.3-1.98.14-.96.23-1.92.35-2.88.42-3.45.85-6.9,1.26-10.35.2-1.67.44-3.34.54-5.02.07-1.22-1.06-2.01-2.26-1.71-1.13.28-1.76,1.03-1.91,2.14-.27,1.97-.47,3.95-.7,5.92-.36,2.96-.74,5.91-1.08,8.87-.08.67-.31.92-1.03.91-3.85-.04-7.69-.02-11.54-.02-.27,0-.54-.03-.88-.06ZM813.26,408.09s0,.02,0,.04c-2.9,0-5.81-.01-8.71,0-1.35,0-2.42,1.09-2.37,2.36.04.98.66,1.83,2.29,1.81,4.01-.06,8.02-.03,12.03-.03.8,0,1.6,0,2.41,0,.38,0,.65.06.59.56-.29,2.3-.56,4.6-.84,6.9-.32,2.68-.68,5.36-.96,8.05-.15,1.42.93,2.33,2.29,2.04.94-.2,1.71-1.01,1.84-2.01.72-5.75,1.44-11.49,2.13-17.24.21-1.75-.45-2.46-2.23-2.47-2.82-.01-5.64,0-8.46,0Z"/>
          <path class="cls-1" d="M810.25,420.59h-13.32c-.29,2.31-.58,4.58-.86,6.85-.35,2.88-.68,5.76-1.04,8.63-.18,1.42-1.12,2.26-2.41,2.26-1.11,0-1.87-.7-1.79-1.81.13-1.7.36-3.4.56-5.1.47-3.89.94-7.78,1.41-11.67.06-.49.1-.99.18-1.48.2-1.1,1.2-1.94,2.37-1.94,5.87,0,11.73,0,17.6.01,1.18,0,1.92.93,1.78,2.1-.69,5.78-1.39,11.56-2.08,17.34-.16,1.3-1.03,2.21-2.22,2.29-1.22.08-2.08-.65-1.99-1.87.12-1.62.35-3.24.55-4.85.41-3.37.84-6.73,1.25-10.1.02-.19,0-.38,0-.64Z"/>
          <path class="cls-1" d="M786.28,441.96c.34.02.61.06.88.06,3.85,0,7.69-.02,11.54.02.72,0,.95-.24,1.03-.91.34-2.96.72-5.91,1.08-8.87.24-1.97.44-3.95.7-5.92.15-1.11.78-1.86,1.91-2.14,1.2-.29,2.33.49,2.26,1.71-.1,1.68-.34,3.35-.54,5.02-.41,3.45-.84,6.9-1.26,10.35-.12.96-.21,1.92-.35,2.88-.17,1.15-1.12,1.98-2.3,1.98-5.78.02-11.56.03-17.35.03-1.65,0-2.26-.78-2.06-2.42.63-5.23,1.25-10.47,1.87-15.7.08-.63.13-1.27.29-1.88.27-1.02,1.18-1.71,2.17-1.74,1.16-.04,2.01.71,1.93,1.87-.12,1.62-.35,3.24-.55,4.85-.41,3.34-.84,6.68-1.26,10.02-.03.24,0,.48,0,.79Z"/>
          <path class="cls-1" d="M813.26,408.09c2.82,0,5.64-.01,8.46,0,1.78,0,2.44.72,2.23,2.47-.69,5.75-1.41,11.5-2.13,17.24-.13,1-.9,1.81-1.84,2.01-1.36.29-2.44-.62-2.29-2.04.29-2.69.64-5.37.96-8.05.28-2.3.55-4.6.84-6.9.06-.49-.21-.56-.59-.56-.8,0-1.6,0-2.41,0-4.01,0-8.02-.03-12.03.03-1.63.03-2.25-.82-2.29-1.81-.06-1.27,1.02-2.36,2.37-2.36,2.9-.02,5.81,0,8.71,0,0-.01,0-.02,0-.04Z"/>
        </g>
      </g>
      <g>
        <g>
          <path class="cls-1" d="M324.53,295.6c-4.41-6.01-9.39-10.29-14.94-12.84-5.56-2.55-12.49-3.83-20.8-3.83-13.52,0-24.2,3.53-32.06,10.59-7.86,7.06-11.79,16.55-11.79,28.46s3.73,21.23,11.19,28.23c7.46,7.01,17.8,10.51,31.01,10.51,7.91,0,14.69-1.3,20.35-3.9,5.66-2.6,10.94-6.91,15.84-12.92l12.32,7.36c-12.42,15.02-28.53,22.53-48.36,22.53-17.22,0-30.99-4.63-41.3-13.89-10.31-9.26-15.47-21.7-15.47-37.32s5.3-28.93,15.92-38.45c10.61-9.51,24.73-14.27,42.35-14.27,20.62,0,36.59,7.46,47.91,22.38l-12.16,7.36Z"/>
          <path class="cls-1" d="M577.21,355.82c-10.36,9.31-24.35,13.97-41.98,13.97s-31.71-4.63-41.98-13.89c-10.26-9.26-15.39-21.9-15.39-37.92s5.26-28.53,15.77-37.54c10.11-8.71,23.98-13.07,41.6-13.07s31.54,4.35,41.75,13.07c10.51,9.01,15.77,21.53,15.77,37.54s-5.18,28.53-15.54,37.85ZM567.08,290.12c-7.51-6.46-18.12-9.69-31.84-9.69s-24.28,3.25-31.69,9.76c-7.41,6.51-11.11,15.77-11.11,27.78s3.75,21.48,11.26,28.38c7.51,6.91,18.02,10.36,31.54,10.36s24.33-3.43,31.84-10.29c7.51-6.86,11.26-16.34,11.26-28.46s-3.75-21.4-11.26-27.86Z"/>
          <g>
            <rect class="cls-1" y="336.63" width="14.27" height="32.11"/>
            <polygon class="cls-1" points="79.38 280.01 88.34 266.92 78.84 266.92 78.84 266.92 75.91 266.92 0 266.92 0 322.33 27.25 322.33 27.25 322.33 69.53 322.33 69.53 309.27 14.27 309.27 14.27 279.98 53.38 279.98 53.38 280.01 79.38 280.01"/>
          </g>
          <polygon class="cls-1" points="463.4 266.92 428.44 266.92 428.44 266.92 361.18 266.92 361.18 279.98 400.22 279.98 400.22 368.74 414.64 368.74 414.64 279.98 453.54 279.98 453.54 279.98 454.44 279.98 463.4 266.92"/>
          <g>
            <polygon class="cls-1" points="201.52 358.77 198.71 352.95 182.92 352.95 185.25 357.76 190.58 368.74 206.35 368.74 201.52 358.77"/>
            <path class="cls-1" d="M176.01,338.7v.02h15.82l-34.74-71.8h-11.26l-36.71,71.89-.15-.07-7.91,15.85h0s-3.7,7.42-3.7,7.42l9.58,14.79,4.03-8.08.02.03,3.74-7.56,7.82-15.67-.05-.03,3.36-6.78h50.16ZM151.38,288.09l18.32,37.55h-37.24l18.92-37.55Z"/>
          </g>
          <g>
            <polygon class="cls-1" points="745.99 336.58 745.99 348.29 745.99 368.74 760.41 368.74 760.41 348.29 760.41 336.58 745.99 336.58"/>
            <polygon class="cls-1" points="827.84 252.87 827.84 266.92 827.84 287.83 827.84 309.27 760.41 309.27 760.41 266.92 745.99 266.92 745.99 322.35 760.41 322.35 760.41 322.33 827.84 322.33 827.84 368.74 842.26 368.74 842.26 287.83 842.26 266.92 842.26 261.83 827.84 252.87"/>
          </g>
          <g>
            <polygon class="cls-1" points="625.04 343.32 625.04 368.74 625.04 369.32 639.46 378.28 639.46 368.74 639.46 343.32 639.46 340.07 625.04 340.07 625.04 343.32"/>
            <path class="cls-1" d="M710.81,312.81h0s4.09-2.93,5.7-14.22c.28-2.65.48-7.59-1.06-12.34-3.74-12.87-16.39-19.33-38-19.33h-52.41v59.18h14.42s36.64,0,36.64,0c16.42,0,24.63,5.21,24.63,15.62v27.03h14.42v-27.48c0-9.91-3.91-17.32-11.71-22.23,2.97-1.75,5.41-3.84,7.37-6.22ZM694.23,312.81h-16.14c-.89.04-1.8.06-2.74.06h-35.89v-32.89h38.3c10.33,0,17.38,2.09,21.17,6.26,0,0,3.34,4.45,2.76,12.34,0,0,.43,12.54-7.45,14.22Z"/>
          </g>
        </g>
        <path class="cls-1" d="M867.99,280.01c-7.8,0-13.87-6.26-13.87-13.87s6.15-13.94,13.95-13.94,13.87,6.26,13.87,13.87-6.15,13.95-13.95,13.95ZM868.07,253.74c-7.03,0-12.33,5.57-12.33,12.41s5.26,12.33,12.25,12.33,12.33-5.57,12.33-12.41-5.26-12.33-12.25-12.33ZM871.49,267.79l3.61,5.3h-3.8l-3.15-4.76h-2.57v4.76h-3.27v-14.79h6.57c3.53,0,5.8,1.81,5.8,4.88,0,2.42-1.31,3.92-3.19,4.61ZM868.76,261.19h-3.19v4.34h3.27c1.65,0,2.54-.88,2.54-2.15,0-1.46-1-2.19-2.61-2.19Z"/>
      </g>
      <path class="cls-1" d="M537.06,34.63L503.36.93c-.6-.6-1.4-.93-2.24-.93h-96.07c-1.75,0-3.17,1.42-3.17,3.17v54.82h-54.75c-1.75,0-3.17,1.42-3.17,3.17v96.07c0,.84.34,1.65.93,2.24l33.71,33.71c.61.61,1.41.93,2.24.93.71,0,1.42-.24,2.04-.73.75-.61,1.14-1.57,1.14-2.54v-91.6c0-.66.54-1.2,1.2-1.2h16.67v52.07c0,.85.33,1.65.93,2.24l33.7,33.7c.61.61,1.42.93,2.24.93.56,0,1.12-.15,1.64-.45,1-.59,1.54-1.73,1.54-2.89v-85.61s82.9,0,82.9,0c1.1,0,2.19-.5,2.79-1.43.84-1.29.65-2.94-.41-3.99l-33.69-33.69c-.59-.6-1.42-.95-2.26-.95h-49.33v-16.74c0-.66.54-1.2,1.2-1.2h91.56c1.11,0,2.19-.5,2.79-1.43.84-1.3.64-2.94-.41-3.99ZM369.88,80.76c-1.75,0-3.17,1.42-3.17,3.17v88.9l-5.15-5.15v-90.87c0-.66.54-1.2,1.2-1.2h61.87v5.15h-54.75ZM424.63,25.94v43.67h-5.15V18.81c0-.66.54-1.2,1.2-1.2h90.87l5.15,5.15h-88.9c-1.75,0-3.17,1.42-3.17,3.17ZM409.07,6h90.87l5.61,5.61h-88.9c-1.75,0-3.17,1.42-3.17,3.17v43.21h-5.61V7.2c0-.66.54-1.2,1.2-1.2ZM351.15,64h62.33v5.61h-54.75c-1.75,0-3.17,1.42-3.17,3.17v88.9l-5.61-5.61v-90.87c0-.66.54-1.2,1.2-1.2ZM407.87,98.05h5.61v56.51l-5.61-5.61v-50.9ZM424.63,98.05v67.67l-5.15-5.15v-62.51h5.15ZM430.63,171.71v-73.67h5.29v78.95l-5.29-5.29ZM438.92,92.04h0s-57.75,0-57.75,0c-1.75,0-3.17,1.42-3.17,3.17v88.9l-5.29-5.29v-90.87c0-.66.54-1.2,1.2-1.2h64.42s74.51,0,74.51,0l5.29,5.29h-79.21ZM441.92,75.6h59.77l5.15,5.15h-64.93v-5.15ZM490.08,63.99l5.61,5.61h-53.77v-5.61h48.16ZM439.09,34.05c-1.75,0-3.17,1.42-3.17,3.17v43.53h-5.29s0-50.79,0-50.79c0-.66.54-1.2,1.2-1.2h90.87l5.29,5.29h-88.9Z"/>
    </g>
  </g>
</svg>