<?xml version="1.0" encoding="UTF-8"?>
<svg id="Capa_2" data-name="Capa 2" xmlns="http://www.w3.org/2000/svg" viewBox="0 0 881.94 126.08">
  <g id="Layer_1" data-name="Layer 1">
    <g>
      <g>
        <path d="M324.53,43.4c-4.41-6.01-9.39-10.29-14.94-12.84-5.56-2.55-12.49-3.83-20.8-3.83-13.52,0-24.2,3.53-32.06,10.59-7.86,7.06-11.79,16.55-11.79,28.46s3.73,21.23,11.19,28.23c7.46,7.01,17.8,10.51,31.01,10.51,7.91,0,14.69-1.3,20.35-3.9,5.66-2.6,10.94-6.91,15.84-12.92l12.32,7.36c-12.42,15.02-28.53,22.53-48.36,22.53-17.22,0-30.99-4.63-41.3-13.89-10.31-9.26-15.47-21.7-15.47-37.32s5.3-28.93,15.92-38.45c10.61-9.51,24.73-14.27,42.35-14.27,20.62,0,36.59,7.46,47.91,22.38l-12.16,7.36Z"/>
        <path d="M577.21,103.62c-10.36,9.31-24.35,13.97-41.98,13.97s-31.71-4.63-41.98-13.89c-10.26-9.26-15.39-21.9-15.39-37.92s5.26-28.53,15.77-37.54c10.11-8.71,23.98-13.07,41.6-13.07s31.54,4.35,41.75,13.07c10.51,9.01,15.77,21.53,15.77,37.54s-5.18,28.53-15.54,37.85ZM567.08,37.92c-7.51-6.46-18.12-9.69-31.84-9.69s-24.28,3.25-31.69,9.76c-7.41,6.51-11.11,15.77-11.11,27.78s3.75,21.48,11.26,28.38c7.51,6.91,18.02,10.36,31.54,10.36s24.33-3.43,31.84-10.29c7.51-6.86,11.26-16.34,11.26-28.46s-3.75-21.4-11.26-27.86Z"/>
        <g>
          <rect x="0" y="84.43" width="14.27" height="32.11"/>
          <polygon points="79.38 27.81 88.34 14.72 78.84 14.72 78.84 14.72 75.91 14.72 0 14.72 0 70.13 27.25 70.13 27.25 70.14 69.53 70.14 69.53 57.07 14.27 57.07 14.27 27.78 53.38 27.78 53.38 27.81 79.38 27.81"/>
        </g>
        <polygon points="463.4 14.72 428.44 14.72 428.44 14.72 361.18 14.72 361.18 27.78 400.22 27.78 400.22 116.54 414.64 116.54 414.64 27.78 453.54 27.78 453.54 27.78 454.44 27.78 463.4 14.72"/>
        <g>
          <polygon points="201.52 106.57 198.71 100.75 182.92 100.75 185.25 105.56 190.58 116.54 206.35 116.54 201.52 106.57"/>
          <path d="M176.01,86.51v.02h15.82L157.09,14.72h-11.26l-36.71,71.89-.15-.07-7.91,15.85h0s-3.7,7.42-3.7,7.42l9.58,14.79,4.03-8.08.02.03,3.74-7.56,7.82-15.67-.05-.03,3.36-6.78h50.16ZM151.38,35.89l18.32,37.55h-37.24l18.92-37.55Z"/>
        </g>
        <g>
          <polygon points="745.99 84.38 745.99 96.09 745.99 116.54 760.41 116.54 760.41 96.09 760.41 84.38 745.99 84.38"/>
          <polygon points="827.84 .67 827.84 14.72 827.84 35.64 827.84 57.07 760.41 57.07 760.41 14.72 745.99 14.72 745.99 70.15 760.41 70.15 760.41 70.13 827.84 70.13 827.84 116.54 842.26 116.54 842.26 35.64 842.26 14.72 842.26 9.63 827.84 .67"/>
        </g>
        <g>
          <polygon points="625.04 91.12 625.04 116.54 625.04 117.12 639.46 126.08 639.46 116.54 639.46 91.12 639.46 87.87 625.04 87.87 625.04 91.12"/>
          <path d="M710.81,60.61h0s4.09-2.93,5.7-14.22c.28-2.65.48-7.59-1.06-12.34-3.74-12.87-16.39-19.33-38-19.33h-52.41v59.18h14.42s36.64,0,36.64,0c16.42,0,24.63,5.21,24.63,15.62v27.03h14.42v-27.48c0-9.91-3.91-17.32-11.71-22.23,2.97-1.75,5.41-3.84,7.37-6.22ZM694.23,60.61h-16.14c-.89.04-1.8.06-2.74.06h-35.89V27.78h38.3c10.33,0,17.38,2.09,21.17,6.26,0,0,3.34,4.45,2.76,12.34,0,0,.43,12.54-7.45,14.22Z"/>
        </g>
      </g>
      <path d="M867.99,27.81c-7.8,0-13.87-6.26-13.87-13.87s6.15-13.94,13.95-13.94,13.87,6.26,13.87,13.87-6.15,13.95-13.95,13.95ZM868.07,1.54c-7.03,0-12.33,5.57-12.33,12.41s5.26,12.33,12.25,12.33,12.33-5.57,12.33-12.41-5.26-12.33-12.25-12.33ZM871.49,15.6l3.61,5.3h-3.8l-3.15-4.76h-2.57v4.76h-3.27V6.11h6.57c3.53,0,5.8,1.81,5.8,4.88,0,2.42-1.31,3.92-3.19,4.61ZM868.76,8.99h-3.19v4.34h3.27c1.65,0,2.54-.88,2.54-2.15,0-1.46-1-2.19-2.61-2.19Z"/>
    </g>
  </g>
</svg>