<?xml version="1.0" encoding="UTF-8"?>
<svg id="Capa_2" data-name="Capa 2" xmlns="http://www.w3.org/2000/svg" viewBox="0 0 601.87 602.1">
  <g id="Layer_1" data-name="Layer 1">
    <path d="M598.98,107.42L494.45,2.89c-1.86-1.86-4.33-2.89-6.96-2.89H189.5c-5.44,0-9.84,4.41-9.84,9.84v170.04H9.84c-5.44,0-9.84,4.41-9.84,9.84v297.99c0,2.59,1.05,5.13,2.88,6.96l104.55,104.55c1.89,1.88,4.39,2.87,6.94,2.87,2.19,0,4.42-.74,6.32-2.28,2.33-1.89,3.53-4.86,3.53-7.87v-284.12c0-2.06,1.67-3.73,3.73-3.73h51.72v161.52c0,2.63,1.02,5.1,2.88,6.96l104.53,104.53c1.89,1.89,4.39,2.89,6.95,2.89,1.73,0,3.48-.46,5.07-1.4,3.09-1.83,4.78-5.37,4.78-8.96v-265.54s257.11,0,257.11,0c3.42,0,6.79-1.55,8.65-4.42,2.61-4.01,2-9.1-1.26-12.38l-104.48-104.48c-1.84-1.86-4.39-2.93-7.01-2.93h-153.02v-51.92c0-2.06,1.67-3.73,3.73-3.73h283.98c3.43,0,6.79-1.56,8.66-4.43,2.6-4.02,1.99-9.11-1.27-12.37ZM80.44,250.48c-5.44,0-9.84,4.41-9.84,9.84v275.75l-15.98-15.98V238.24c0-2.06,1.67-3.73,3.73-3.73h191.91v15.97H80.44ZM250.26,80.44v135.45h-15.98V58.35c0-2.06,1.67-3.73,3.73-3.73h281.86l15.98,15.98h-275.75c-5.44,0-9.84,4.41-9.84,9.84ZM202,18.61h281.86l17.4,17.4H225.51c-5.44,0-9.84,4.41-9.84,9.84v134.03h-17.4V22.34c0-2.06,1.67-3.73,3.73-3.73ZM22.34,198.49h193.33v17.4H45.86c-5.44,0-9.84,4.41-9.84,9.84v275.75l-17.4-17.4V202.22c0-2.06,1.67-3.73,3.73-3.73ZM198.28,304.1h17.4v175.29l-17.4-17.4v-157.89ZM250.27,304.1v209.88l-15.98-15.98v-193.9h15.98ZM268.88,532.59v-228.49h16.4v244.89l-16.4-16.4ZM294.58,285.48h0s-179.13.01-179.13.01c-5.44,0-9.84,4.41-9.84,9.84v275.75l-16.4-16.4v-281.86c0-2.06,1.67-3.73,3.73-3.73h199.82s231.11-.01,231.11-.01l16.4,16.4h-245.68ZM303.88,234.49h185.4l15.98,15.98h-201.38v-15.98ZM453.26,198.48l17.4,17.4h-166.79v-17.4h149.39ZM295.11,105.61c-5.44,0-9.84,4.41-9.84,9.84v135.02h-16.4s0-157.53,0-157.53c0-2.06,1.67-3.73,3.73-3.73h281.86l16.4,16.4h-275.75Z"/>
  </g>
</svg>