<?xml version="1.0" encoding="UTF-8"?>
<svg id="Capa_2" data-name="Capa 2" xmlns="http://www.w3.org/2000/svg" viewBox="0 0 881.94 378.28">
  <defs>
    <style>
      .cls-1 {
        fill: #fff;
      }
    </style>
  </defs>
  <g id="Layer_1" data-name="Layer 1">
    <g>
      <g>
        <g>
          <path class="cls-1" d="M324.53,295.6c-4.41-6.01-9.39-10.29-14.94-12.84-5.56-2.55-12.49-3.83-20.8-3.83-13.52,0-24.2,3.53-32.06,10.59-7.86,7.06-11.79,16.55-11.79,28.46s3.73,21.23,11.19,28.23c7.46,7.01,17.8,10.51,31.01,10.51,7.91,0,14.69-1.3,20.35-3.9,5.66-2.6,10.94-6.91,15.84-12.92l12.32,7.36c-12.42,15.02-28.53,22.53-48.36,22.53-17.22,0-30.99-4.63-41.3-13.89-10.31-9.26-15.47-21.7-15.47-37.32s5.3-28.93,15.92-38.45c10.61-9.51,24.73-14.27,42.35-14.27,20.62,0,36.59,7.46,47.91,22.38l-12.16,7.36Z"/>
          <path class="cls-1" d="M577.21,355.82c-10.36,9.31-24.35,13.97-41.98,13.97s-31.71-4.63-41.98-13.89c-10.26-9.26-15.39-21.9-15.39-37.92s5.26-28.53,15.77-37.54c10.11-8.71,23.98-13.07,41.6-13.07s31.54,4.35,41.75,13.07c10.51,9.01,15.77,21.53,15.77,37.54s-5.18,28.53-15.54,37.85ZM567.08,290.12c-7.51-6.46-18.12-9.69-31.84-9.69s-24.28,3.25-31.69,9.76c-7.41,6.51-11.11,15.77-11.11,27.78s3.75,21.48,11.26,28.38c7.51,6.91,18.02,10.36,31.54,10.36s24.33-3.43,31.84-10.29c7.51-6.86,11.26-16.34,11.26-28.46s-3.75-21.4-11.26-27.86Z"/>
          <g>
            <rect class="cls-1" y="336.63" width="14.27" height="32.11"/>
            <polygon class="cls-1" points="79.38 280.01 88.34 266.92 78.84 266.92 78.84 266.92 75.91 266.92 0 266.92 0 322.33 27.25 322.33 27.25 322.33 69.53 322.33 69.53 309.27 14.27 309.27 14.27 279.98 53.38 279.98 53.38 280.01 79.38 280.01"/>
          </g>
          <polygon class="cls-1" points="463.4 266.92 428.44 266.92 428.44 266.92 361.18 266.92 361.18 279.98 400.22 279.98 400.22 368.74 414.64 368.74 414.64 279.98 453.54 279.98 453.54 279.98 454.44 279.98 463.4 266.92"/>
          <g>
            <polygon class="cls-1" points="201.52 358.77 198.71 352.95 182.92 352.95 185.25 357.76 190.58 368.74 206.35 368.74 201.52 358.77"/>
            <path class="cls-1" d="M176.01,338.7v.02h15.82l-34.74-71.8h-11.26l-36.71,71.89-.15-.07-7.91,15.85h0s-3.7,7.42-3.7,7.42l9.58,14.79,4.03-8.08.02.03,3.74-7.56,7.82-15.67-.05-.03,3.36-6.78h50.16ZM151.38,288.09l18.32,37.55h-37.24l18.92-37.55Z"/>
          </g>
          <g>
            <polygon class="cls-1" points="745.99 336.58 745.99 348.29 745.99 368.74 760.41 368.74 760.41 348.29 760.41 336.58 745.99 336.58"/>
            <polygon class="cls-1" points="827.84 252.87 827.84 266.92 827.84 287.83 827.84 309.27 760.41 309.27 760.41 266.92 745.99 266.92 745.99 322.35 760.41 322.35 760.41 322.33 827.84 322.33 827.84 368.74 842.26 368.74 842.26 287.83 842.26 266.92 842.26 261.83 827.84 252.87"/>
          </g>
          <g>
            <polygon class="cls-1" points="625.04 343.32 625.04 368.74 625.04 369.32 639.46 378.28 639.46 368.74 639.46 343.32 639.46 340.07 625.04 340.07 625.04 343.32"/>
            <path class="cls-1" d="M710.81,312.81h0s4.09-2.93,5.7-14.22c.28-2.65.48-7.59-1.06-12.34-3.74-12.87-16.39-19.33-38-19.33h-52.41v59.18h14.42s36.64,0,36.64,0c16.42,0,24.63,5.21,24.63,15.62v27.03h14.42v-27.48c0-9.91-3.91-17.32-11.71-22.23,2.97-1.75,5.41-3.84,7.37-6.22ZM694.23,312.81h-16.14c-.89.04-1.8.06-2.74.06h-35.89v-32.89h38.3c10.33,0,17.38,2.09,21.17,6.26,0,0,3.34,4.45,2.76,12.34,0,0,.43,12.54-7.45,14.22Z"/>
          </g>
        </g>
        <path class="cls-1" d="M867.99,280.01c-7.8,0-13.87-6.26-13.87-13.87s6.15-13.94,13.95-13.94,13.87,6.26,13.87,13.87-6.15,13.95-13.95,13.95ZM868.07,253.74c-7.03,0-12.33,5.57-12.33,12.41s5.26,12.33,12.25,12.33,12.33-5.57,12.33-12.41-5.26-12.33-12.25-12.33ZM871.49,267.79l3.61,5.3h-3.8l-3.15-4.76h-2.57v4.76h-3.27v-14.79h6.57c3.53,0,5.8,1.81,5.8,4.88,0,2.42-1.31,3.92-3.19,4.61ZM868.76,261.19h-3.19v4.34h3.27c1.65,0,2.54-.88,2.54-2.15,0-1.46-1-2.19-2.61-2.19Z"/>
      </g>
      <path class="cls-1" d="M537.06,34.63L503.36.93c-.6-.6-1.4-.93-2.24-.93h-96.07c-1.75,0-3.17,1.42-3.17,3.17v54.82h-54.75c-1.75,0-3.17,1.42-3.17,3.17v96.07c0,.84.34,1.65.93,2.24l33.71,33.71c.61.61,1.41.93,2.24.93.71,0,1.42-.24,2.04-.73.75-.61,1.14-1.57,1.14-2.54v-91.6c0-.66.54-1.2,1.2-1.2h16.67v52.07c0,.85.33,1.65.93,2.24l33.7,33.7c.61.61,1.42.93,2.24.93.56,0,1.12-.15,1.64-.45,1-.59,1.54-1.73,1.54-2.89v-85.61s82.9,0,82.9,0c1.1,0,2.19-.5,2.79-1.43.84-1.29.65-2.94-.41-3.99l-33.69-33.69c-.59-.6-1.42-.95-2.26-.95h-49.33v-16.74c0-.66.54-1.2,1.2-1.2h91.56c1.11,0,2.19-.5,2.79-1.43.84-1.3.64-2.94-.41-3.99ZM369.88,80.76c-1.75,0-3.17,1.42-3.17,3.17v88.9l-5.15-5.15v-90.87c0-.66.54-1.2,1.2-1.2h61.87v5.15h-54.75ZM424.63,25.94v43.67h-5.15V18.81c0-.66.54-1.2,1.2-1.2h90.87l5.15,5.15h-88.9c-1.75,0-3.17,1.42-3.17,3.17ZM409.07,6h90.87l5.61,5.61h-88.9c-1.75,0-3.17,1.42-3.17,3.17v43.21h-5.61V7.2c0-.66.54-1.2,1.2-1.2ZM351.15,64h62.33v5.61h-54.75c-1.75,0-3.17,1.42-3.17,3.17v88.9l-5.61-5.61v-90.87c0-.66.54-1.2,1.2-1.2ZM407.87,98.05h5.61v56.51l-5.61-5.61v-50.9ZM424.63,98.05v67.67l-5.15-5.15v-62.51h5.15ZM430.63,171.71v-73.67h5.29v78.95l-5.29-5.29ZM438.92,92.04h0s-57.75,0-57.75,0c-1.75,0-3.17,1.42-3.17,3.17v88.9l-5.29-5.29v-90.87c0-.66.54-1.2,1.2-1.2h64.42s74.51,0,74.51,0l5.29,5.29h-79.21ZM441.92,75.6h59.77l5.15,5.15h-64.93v-5.15ZM490.08,63.99l5.61,5.61h-53.77v-5.61h48.16ZM439.09,34.05c-1.75,0-3.17,1.42-3.17,3.17v43.53h-5.29s0-50.79,0-50.79c0-.66.54-1.2,1.2-1.2h90.87l5.29,5.29h-88.9Z"/>
    </g>
  </g>
</svg>