<svg width="19" height="20" viewBox="0 0 19 20" fill="none" xmlns="http://www.w3.org/2000/svg">
<g clip-path="url(#clip0_7_691)">
<path d="M3.65869 0.462891H16.4532V9.97871H3.65869V0.462891Z" fill="#CCCCCC"/>
<path d="M2.1499 2.22217H14.9444V11.7383H2.1499V2.22217Z" fill="#E6E6E6"/>
<path d="M14.9444 3.44824V11.7383H2.1499V6.03112C2.3353 5.964 2.53578 5.92718 2.74438 5.92718H7.73603C8.33935 5.92718 8.9002 5.61465 9.21766 5.10092L9.72864 4.27451C10.0461 3.76121 10.6069 3.44824 11.2107 3.44824H14.9444Z" fill="#CCCCCC"/>
<path d="M9.72862 5.12753L9.21778 5.95394C8.90032 6.46753 8.33962 6.78007 7.73587 6.78007H2.74407C1.78198 6.78007 1.00195 7.56009 1.00195 8.52233V17.7207C1.00195 18.6829 1.78198 19.4628 2.74407 19.4628H16.3208C17.283 19.4628 18.063 18.6829 18.063 17.7207V6.04338C18.063 5.08129 17.283 4.30127 16.3208 4.30127H11.2105C10.6068 4.30127 10.0461 4.6138 9.72862 5.12753Z" fill="#F4D553"/>
<path d="M10.1771 5.95394L10.688 5.12753C11.0054 4.6138 11.5661 4.30127 12.17 4.30127H11.2104C10.6065 4.30127 10.0458 4.6138 9.72834 5.12753L9.21765 5.95394C8.90019 6.46753 8.33949 6.78021 7.7356 6.78021H8.69522C9.29898 6.78021 9.85968 6.46753 10.1771 5.95394Z" fill="#F2A755"/>
<path d="M1.96158 17.7207V8.52239C1.96158 7.56015 2.74146 6.78027 3.7037 6.78027H2.74407C1.78198 6.78027 1.00195 7.56015 1.00195 8.52239V17.7207C1.00195 18.683 1.78198 19.463 2.74407 19.463H3.7037C2.74146 19.463 1.96158 18.683 1.96158 17.7207Z" fill="#F2A755"/>
<path d="M9.49655 12.6178H4.23889C3.61499 12.6178 3.10938 12.112 3.10938 11.4882V10.3087C3.10938 9.68482 3.61499 9.1792 4.23889 9.1792H9.49655C10.1205 9.1792 10.6261 9.68482 10.6261 10.3087V11.4882C10.6261 12.112 10.1205 12.6178 9.49655 12.6178Z" fill="#E6E6E6"/>
<path d="M8.90698 11.8116H4.82871C4.65925 11.8116 4.52197 11.6742 4.52197 11.5047C4.52197 11.3354 4.65925 11.198 4.82871 11.198H8.90698C9.07643 11.198 9.21371 11.3354 9.21371 11.5047C9.21371 11.6742 9.07643 11.8116 8.90698 11.8116Z" fill="#1A414C"/>
<path d="M8.90698 10.5987H4.82871C4.65925 10.5987 4.52197 10.4614 4.52197 10.292C4.52197 10.1225 4.65925 9.98511 4.82871 9.98511H8.90698C9.07643 9.98511 9.21371 10.1225 9.21371 10.292C9.21371 10.4614 9.07643 10.5987 8.90698 10.5987Z" fill="#1A414C"/>
</g>
<defs>
<clipPath id="clip0_7_691">
<rect width="19" height="19" fill="white" transform="translate(0 0.5)"/>
</clipPath>
</defs>
</svg>
