<svg width="20" height="20" viewBox="0 0 20 20" fill="none" xmlns="http://www.w3.org/2000/svg">
<path d="M13.5156 18.8281H11.1719C10.848 18.8281 10.5859 18.5661 10.5859 18.2422C10.5859 17.9183 10.848 17.6562 11.1719 17.6562H13.5156C14.4849 17.6562 15.2734 16.8677 15.2734 15.8984V13.5547C15.2734 13.2308 15.5355 12.9688 15.8594 12.9688C16.1832 12.9688 16.4453 13.2308 16.4453 13.5547V15.8984C16.4453 17.5138 15.131 18.8281 13.5156 18.8281Z" fill="#1C9F2A"/>
<path d="M18.7891 8.78906V11.1328L17.6172 12.5312V8.78906C17.6172 4.59371 14.1954 1.17188 10 1.17188C5.80465 1.17188 2.38281 4.59371 2.38281 8.78906V12.7188L1.21094 11.1328V8.78906C1.21094 3.9375 5.14844 0 10 0C14.8516 0 18.7891 3.9375 18.7891 8.78906Z" fill="#ABFFB4"/>
<path d="M18.7891 8.78906V11.1328L17.6172 12.5312V8.78906C17.6172 4.59371 14.1954 1.17188 10 1.17188V0C14.8516 0 18.7891 3.9375 18.7891 8.78906Z" fill="#1C9F2A"/>
<path d="M4.14062 15.3125H2.96875C1.99945 15.3125 1.21094 14.524 1.21094 13.5547V11.1328C1.21094 10.1635 1.99945 9.375 2.96875 9.375H4.14062C4.46449 9.375 4.72656 9.63707 4.72656 9.96094V14.7266C4.72656 15.0504 4.46449 15.3125 4.14062 15.3125Z" fill="#FFC700"/>
<path d="M17.0312 15.3125H15.8594C15.5355 15.3125 15.2734 15.0504 15.2734 14.7266V9.96094C15.2734 9.63707 15.5355 9.375 15.8594 9.375H17.0312C18.0005 9.375 18.7891 10.1635 18.7891 11.1328V13.5547C18.7891 14.524 18.0005 15.3125 17.0312 15.3125Z" fill="#FFE600"/>
<path d="M10 16.4844C9.0273 16.4844 8.24219 17.2695 8.24219 18.2422C8.24219 19.2148 9.0273 20 10 20C10.9727 20 11.7578 19.2148 11.7578 18.2422C11.7578 17.2695 10.9727 16.4844 10 16.4844Z" fill="#39C047"/>
<path d="M11.7578 18.2422C11.7578 19.2148 10.9727 20 10 20V16.4844C10.9727 16.4844 11.7578 17.2695 11.7578 18.2422Z" fill="#ABFFB4"/>
<path d="M5.3125 16.4844C4.3432 16.4844 3.55469 15.6959 3.55469 14.7266V9.96094C3.55469 8.99164 4.3432 8.20312 5.3125 8.20312C6.2818 8.20312 7.07031 8.99164 7.07031 9.96094V14.7266C7.07031 15.6959 6.2818 16.4844 5.3125 16.4844Z" fill="#ABFFB4"/>
<path d="M14.6875 16.4844C13.7182 16.4844 12.9297 15.6959 12.9297 14.7266V9.96094C12.9297 8.99164 13.7182 8.20312 14.6875 8.20312C15.6568 8.20312 16.4453 8.99164 16.4453 9.96094V14.7266C16.4453 15.6959 15.6568 16.4844 14.6875 16.4844Z" fill="#1C9F2A"/>
</svg>
