<svg width="147" height="46" viewBox="0 0 147 46" fill="none" xmlns="http://www.w3.org/2000/svg">
<path d="M22.4623 18.4607C22.6484 18.4607 22.827 18.5346 22.9586 18.6663C23.0902 18.7979 23.1642 18.9765 23.1642 19.1626C23.1642 20.9301 25.2228 21.6381 25.4735 19.8885C25.5009 19.6977 25.5156 19.5028 25.5156 19.3044C25.5156 16.7192 23.0028 14.7208 22.8947 14.6366C22.7714 14.5397 22.6191 14.4871 22.4623 14.4871C22.3055 14.4871 22.1532 14.5397 22.0299 14.6366C21.9225 14.7201 19.4082 16.7192 19.4082 19.3044C19.4082 19.5029 19.423 19.6979 19.4504 19.8888C19.7014 21.6384 21.7603 20.9301 21.7603 19.1626C21.7603 18.9765 21.8343 18.7979 21.9659 18.6663C22.0976 18.5346 22.2761 18.4607 22.4623 18.4607Z" fill="url(#paint0_linear_13_151)"/>
<path d="M30.4905 32.3758C29.5709 31.3198 28.4486 30.4592 27.1902 29.845C26.3825 29.4508 25.5293 29.1633 24.6521 28.9879C23.8269 28.823 23.1646 28.1411 23.1646 27.2996V24.095C23.1646 23.9587 23.0029 23.8868 22.8957 23.971C22.7721 24.0678 22.6196 24.1203 22.4626 24.1203C22.3057 24.1203 22.1532 24.0678 22.0296 23.971C21.9235 23.8862 21.7607 23.9594 21.7607 24.0952V27.3029C21.7607 28.1422 21.1002 28.8223 20.2771 28.9866C19.3984 29.1619 18.5439 29.4498 17.735 29.8446C16.4766 30.459 15.3543 31.3197 14.4348 32.3758C14.349 32.4782 14.2942 32.603 14.2769 32.7354C14.2596 32.8679 14.2804 33.0025 14.337 33.1235C14.3935 33.2445 14.4834 33.3469 14.5961 33.4186C14.7087 33.4903 14.8396 33.5284 14.9731 33.5284H29.9522C30.0857 33.5284 30.2165 33.4903 30.3292 33.4186C30.4419 33.3469 30.5318 33.2445 30.5883 33.1235C30.6449 33.0025 30.6657 32.8679 30.6484 32.7354C30.631 32.603 30.5763 32.4782 30.4905 32.3758Z" fill="url(#paint1_linear_13_151)"/>
<path d="M43.0524 19.5396L39.1294 18.1449L37.6806 14.6472L39.4677 10.887C39.5299 10.7561 39.55 10.6092 39.5254 10.4665C39.5007 10.3237 39.4325 10.1921 39.3301 10.0896L35.3727 6.13076C35.2702 6.02819 35.1384 5.9599 34.9955 5.93526C34.8526 5.91063 34.7055 5.93086 34.5746 5.99318L30.8137 7.78098L27.3167 6.33151L25.922 2.40916C25.8734 2.27251 25.7837 2.15426 25.6651 2.07067C25.5466 1.98709 25.4051 1.94227 25.2601 1.94238H19.6629C19.5179 1.94227 19.3764 1.98709 19.2579 2.07067C19.1393 2.15426 19.0496 2.27251 19.001 2.40916L17.6063 6.33151L14.1093 7.78098L10.3484 5.99318C10.2175 5.93086 10.0704 5.91063 9.92753 5.93526C9.78462 5.9599 9.65285 6.02819 9.55033 6.13076L5.59289 10.0896C5.49035 10.192 5.42202 10.3236 5.39726 10.4664C5.3725 10.6091 5.39253 10.7561 5.45461 10.887L7.2424 14.6472L5.79364 18.1449L1.87059 19.5396C1.73393 19.5882 1.61568 19.6779 1.5321 19.7964C1.44851 19.915 1.4037 20.0565 1.40381 20.2015V25.7986C1.4037 25.9437 1.44851 26.0852 1.5321 26.2037C1.61568 26.3222 1.73393 26.412 1.87059 26.4606L5.79364 27.8553L7.2424 31.353L5.45461 35.1132C5.39237 35.2442 5.37226 35.3912 5.39702 35.5342C5.42178 35.6771 5.4902 35.8088 5.59289 35.9112L9.55033 39.8694C9.65285 39.972 9.78462 40.0403 9.92753 40.0649C10.0704 40.0895 10.2175 40.0693 10.3484 40.007L14.1093 38.2192L17.6063 39.6686L19.001 43.591C19.0496 43.7275 19.1392 43.8457 19.2576 43.9293C19.376 44.0129 19.5173 44.0577 19.6622 44.0578H25.2601C25.405 44.0577 25.5463 44.0129 25.6647 43.9293C25.7831 43.8457 25.8727 43.7275 25.9213 43.591L27.3167 39.6686L30.8137 38.2192L34.5739 40.007C34.7048 40.0693 34.8519 40.0895 34.9948 40.0649C35.1377 40.0403 35.2695 39.972 35.372 39.8694L39.3301 35.9105C39.4325 35.8081 39.5007 35.6764 39.5254 35.5337C39.55 35.3909 39.5299 35.244 39.4677 35.1132L37.6806 31.353L39.1294 27.8553L43.0524 26.4606C43.1891 26.412 43.3073 26.3222 43.3909 26.2037C43.4745 26.0852 43.5193 25.9437 43.5192 25.7986V20.2015C43.5193 20.0565 43.4745 19.915 43.3909 19.7964C43.3073 19.6779 43.1891 19.5882 43.0524 19.5396ZM22.4615 36.3366C19.8238 36.3366 17.2453 35.5544 15.0521 34.089C12.8589 32.6236 11.1496 30.5407 10.1401 28.1037C9.13073 25.6668 8.86663 22.9853 9.38122 20.3982C9.89581 17.8112 11.166 15.4349 13.0311 13.5697C14.8963 11.7046 17.2726 10.4344 19.8597 9.91979C22.4467 9.4052 25.1282 9.66931 27.5652 10.6787C30.0021 11.6881 32.085 13.3975 33.5504 15.5907C35.0159 17.7839 35.798 20.3624 35.798 23.0001C35.794 26.5359 34.3875 29.9257 31.8873 32.4259C29.3871 34.9261 25.9973 36.3325 22.4615 36.3366Z" fill="url(#paint2_linear_13_151)"/>
<path d="M32.0666 20.5994C32.0478 20.4435 31.9772 20.2983 31.8661 20.1872C31.755 20.0761 31.6098 20.0055 31.4538 19.9867C31.3184 19.9698 28.1274 19.6069 26.301 21.4347C26.1326 21.603 25.9828 21.7829 25.8497 21.9708C24.8646 23.3606 26.7518 24.2847 27.9681 23.092C28.0336 23.0259 28.1115 22.9735 28.1974 22.9378C28.2833 22.9022 28.3755 22.8839 28.4685 22.8842C28.5615 22.8845 28.6536 22.9032 28.7393 22.9393C28.825 22.9755 28.9027 23.0283 28.9678 23.0947C29.0329 23.1612 29.0842 23.2399 29.1186 23.3263C29.1531 23.4127 29.17 23.5051 29.1684 23.5981C29.1668 23.6911 29.1468 23.7829 29.1094 23.868C29.072 23.9532 29.0181 24.0301 28.9508 24.0943L26.1238 26.866C25.9832 27.0038 26.0733 27.2403 26.2701 27.2403C27.3665 27.2403 29.3305 27.0403 30.6185 25.7523C32.447 23.9245 32.082 20.7342 32.0666 20.5994ZM15.9722 24.095C15.8392 23.9647 15.7634 23.7869 15.7615 23.6007C15.7596 23.4145 15.8317 23.2352 15.962 23.1021C16.0923 22.9691 16.2702 22.8933 16.4564 22.8914C16.6426 22.8895 16.8219 22.9617 16.9549 23.092C18.1705 24.284 20.0577 23.3597 19.0732 21.9707C18.9401 21.7828 18.7903 21.603 18.622 21.4347C16.7949 19.6069 13.6039 19.9705 13.4699 19.9867C13.3138 20.0053 13.1686 20.0758 13.0574 20.1867C12.9462 20.2977 12.8754 20.4428 12.8564 20.5987C12.8402 20.7342 12.4759 23.9245 14.3037 25.7523C15.5911 27.0403 17.5557 27.2403 18.6522 27.2403C18.8498 27.2403 18.9396 27.0043 18.7984 26.8659L15.9722 24.095Z" fill="url(#paint3_linear_13_151)"/>
<path d="M61.5558 34H57.1421C56.6705 34 56.3897 33.7642 56.2998 33.2925L51.0775 13.1108C50.9203 12.5942 51.1449 12.3358 51.7514 12.3358H54.9185C55.3677 12.3358 55.6372 12.5717 55.7271 13.0434L59.2648 29.62H59.3995L62.9372 13.0434C63.0271 12.5717 63.2966 12.3358 63.7458 12.3358H66.9129C67.4745 12.3358 67.6991 12.5942 67.5868 13.1108L62.3645 33.2925C62.2521 33.7642 61.9826 34 61.5558 34ZM75.9925 34H75.1838C73.4094 34 72.0392 33.5283 71.0734 32.5849C70.1075 31.6415 69.6246 30.2826 69.6246 28.5082V22.3088C69.6246 20.5343 70.1075 19.1754 71.0734 18.232C72.0392 17.2886 73.4094 16.8169 75.1838 16.8169H82.9668C83.4609 16.8169 83.708 17.0528 83.708 17.5245V33.2925C83.708 33.7642 83.4609 34 82.9668 34H80.1366C79.6649 34 79.4291 33.7642 79.4291 33.2925V32.1806H79.2943C79.0472 32.7871 78.6092 33.2475 77.9803 33.562C77.3514 33.854 76.6888 34 75.9925 34ZM79.4291 27.7332V20.8937C79.4291 20.6466 79.2943 20.5231 79.0248 20.5231H75.8577C75.1389 20.5231 74.6335 20.6803 74.3415 20.9948C74.0495 21.2868 73.9035 21.7922 73.9035 22.5109V28.306C73.9035 29.0248 74.0495 29.5414 74.3415 29.8558C74.6335 30.1478 75.1389 30.2938 75.8577 30.2938H77.1043C78.6542 30.2938 79.4291 29.4403 79.4291 27.7332ZM87.7706 20.5231H86.4229C86.1533 20.5231 85.9624 20.4782 85.8501 20.3883C85.7602 20.2985 85.7153 20.1188 85.7153 19.8492V17.5245C85.7153 17.0528 85.9512 16.8169 86.4229 16.8169H87.7706C88.0176 16.8169 88.1412 16.6934 88.1412 16.4463V13.2455C88.1412 12.7738 88.3882 12.538 88.8824 12.538H91.7126C92.1842 12.538 92.4201 12.7738 92.4201 13.2455V16.4463C92.4201 16.6934 92.5549 16.8169 92.8244 16.8169H95.4524C95.9241 16.8169 96.1599 17.0528 96.1599 17.5245V19.8492C96.1599 20.0963 96.1038 20.276 95.9915 20.3883C95.9016 20.4782 95.7219 20.5231 95.4524 20.5231H92.8244C92.5549 20.5231 92.4201 20.6466 92.4201 20.8937V28.3397C92.4201 29.036 92.5773 29.5414 92.8918 29.8558C93.2062 30.1478 93.7229 30.2938 94.4416 30.2938H95.7893C96.261 30.2938 96.4969 30.5297 96.4969 31.0014V33.3262C96.4969 33.5732 96.4407 33.7529 96.3284 33.8652C96.2386 33.9551 96.0589 34 95.7893 34H93.7341C91.9596 34 90.5782 33.5283 89.5899 32.5849C88.6241 31.6415 88.1412 30.2938 88.1412 28.5418V20.8937C88.1412 20.6466 88.0176 20.5231 87.7706 20.5231ZM111.946 34H104.5C102.726 34 101.355 33.5283 100.39 32.5849C99.4238 31.6415 98.9409 30.2826 98.9409 28.5082V22.3088C98.9409 20.5343 99.4238 19.1754 100.39 18.232C101.355 17.2886 102.726 16.8169 104.5 16.8169H107.162C108.936 16.8169 110.306 17.2886 111.272 18.232C112.238 19.1754 112.721 20.5343 112.721 22.3088V26.5877C112.721 27.0594 112.485 27.2952 112.013 27.2952H103.557C103.287 27.2952 103.152 27.4188 103.152 27.6658V28.4071C103.152 29.1034 103.298 29.6088 103.59 29.9232C103.905 30.2152 104.421 30.3612 105.14 30.3612H111.946C112.418 30.3612 112.654 30.6083 112.654 31.1025V33.3262C112.654 33.5732 112.597 33.7529 112.485 33.8652C112.395 33.9551 112.216 34 111.946 34ZM103.557 24.4314H108.139C108.386 24.4314 108.509 24.3078 108.509 24.0608V22.4435C108.509 21.7248 108.363 21.2194 108.071 20.9274C107.779 20.6354 107.274 20.4894 106.555 20.4894H105.14C104.421 20.4894 103.916 20.6354 103.624 20.9274C103.332 21.2194 103.186 21.7248 103.186 22.4435V24.0608C103.186 24.3078 103.31 24.4314 103.557 24.4314ZM126.877 31.0014V33.3262C126.877 33.5732 126.82 33.7529 126.708 33.8652C126.618 33.9551 126.439 34 126.169 34H121.149C119.374 34 118.004 33.5283 117.038 32.5849C116.073 31.6415 115.59 30.2826 115.59 28.5082V22.3088C115.59 20.5343 116.073 19.1754 117.038 18.232C118.004 17.2886 119.374 16.8169 121.149 16.8169H126.169C126.641 16.8169 126.877 17.0528 126.877 17.5245V19.8492C126.877 20.0963 126.82 20.276 126.708 20.3883C126.618 20.4782 126.439 20.5231 126.169 20.5231H121.823C121.126 20.5231 120.621 20.6803 120.307 20.9948C120.015 21.2868 119.869 21.7922 119.869 22.5109V28.306C119.869 29.0248 120.015 29.5414 120.307 29.8558C120.621 30.1478 121.126 30.2938 121.823 30.2938H126.169C126.641 30.2938 126.877 30.5297 126.877 31.0014ZM133.35 34H130.486C130.014 34 129.779 33.7642 129.779 33.2925V11.0218C129.779 10.5502 130.014 10.3143 130.486 10.3143H133.35C133.822 10.3143 134.057 10.5502 134.057 11.0218V18.6363H134.192C134.686 17.4234 135.787 16.8169 137.494 16.8169H138.572C142.099 16.8169 143.862 18.6475 143.862 22.3088V33.2925C143.862 33.7642 143.615 34 143.121 34H140.291C139.819 34 139.583 33.7642 139.583 33.2925V22.5109C139.583 21.7922 139.426 21.2868 139.111 20.9948C138.819 20.6803 138.314 20.5231 137.595 20.5231H136.382C134.832 20.5231 134.057 21.3766 134.057 23.0837V33.2925C134.057 33.7642 133.822 34 133.35 34Z" fill="white"/>
<defs>
<linearGradient id="paint0_linear_13_151" x1="19.8551" y1="22.3787" x2="25.2988" y2="22.2848" gradientUnits="userSpaceOnUse">
<stop stop-color="#35ABFF"/>
<stop offset="1" stop-color="#30FF5D"/>
</linearGradient>
<linearGradient id="paint1_linear_13_151" x1="15.4698" y1="32.0854" x2="30.049" y2="31.4474" gradientUnits="userSpaceOnUse">
<stop stop-color="#35ABFF"/>
<stop offset="1" stop-color="#30FF5D"/>
</linearGradient>
<linearGradient id="paint2_linear_13_151" x1="4.48542" y1="37.8484" x2="42.0092" y2="36.8675" gradientUnits="userSpaceOnUse">
<stop stop-color="#35ABFF"/>
<stop offset="1" stop-color="#30FF5D"/>
</linearGradient>
<linearGradient id="paint3_linear_13_151" x1="14.2279" y1="26.165" x2="31.3446" y2="24.9816" gradientUnits="userSpaceOnUse">
<stop stop-color="#35ABFF"/>
<stop offset="1" stop-color="#30FF5D"/>
</linearGradient>
</defs>
</svg>
